<svg xmlns="http://www.w3.org/2000/svg" width="22.5" height="33.75" viewBox="0 0 22.5 33.75">
  <g id="Icon_ion-bulb-outline" data-name="Icon ion-bulb-outline" transform="translate(-6.75 -1.125)">
    <path id="패스_3" data-name="패스 3" d="M21.375,27V25.313c0-2.039,2.218-3.968,3.656-5.344a10.18,10.18,0,0,0,3.094-7.594,10.125,10.125,0,1,0-20.25,0,10.422,10.422,0,0,0,3.094,7.594c1.431,1.351,3.656,3.284,3.656,5.344V27m1.125,6.75h4.5m-5.625-3.375h6.75M18,27V18" fill="none" stroke="#f7f1ed" stroke-linecap="round" stroke-linejoin="round" stroke-width="2.25"/>
    <path id="패스_4" data-name="패스 4" d="M20.672,16.875A5.849,5.849,0,0,1,18,18a5.849,5.849,0,0,1-2.672-1.125" fill="none" stroke="#f7f1ed" stroke-linecap="round" stroke-linejoin="round" stroke-width="2.25"/>
  </g>
</svg>
