<svg id="구성_요소_5_3" data-name="구성 요소 5 – 3" xmlns="http://www.w3.org/2000/svg" width="42" height="42" viewBox="0 0 42 42">
  <rect id="사각형_36" data-name="사각형 36" width="42" height="42" fill="transparent"/>
  <g id="파일" transform="translate(4 7)">
    <path id="Icon_core-folder-open" data-name="Icon core-folder-open" d="M34.36,15.493a1.682,1.682,0,0,0-1.33-.643H28.375V11.2a1.619,1.619,0,0,0-1.625-1.61H17.166l-1.25-2.973a1.621,1.621,0,0,0-1.5-.991H2.75a1.619,1.619,0,0,0-1.625,1.61v25.39H30.706l3.961-15.7A1.65,1.65,0,0,0,34.36,15.493ZM3.375,30.4V7.854H14l1.666,3.963H26.125V14.85H9.674a1.682,1.682,0,0,0-1.637,1.266L4.434,30.4Zm25.574,0H6.753l3.36-13.316h22.2Z" transform="translate(-1.125 -5.625)" fill="#C5D5EC"/>
  </g>
</svg>
