<svg xmlns="http://www.w3.org/2000/svg" width="22.57" height="29.602" viewBox="0 0 22.57 29.602">
  <path id="Icon_ion-md-lock" data-name="Icon ion-md-lock" d="M26.438,13.078H25.031V10.266a7.031,7.031,0,0,0-14.062,0v2.813H9.563A2.821,2.821,0,0,0,6.75,15.891V29.953a2.821,2.821,0,0,0,2.813,2.813H26.438a2.821,2.821,0,0,0,2.813-2.812V15.891A2.821,2.821,0,0,0,26.438,13.078ZM18,25.875a2.813,2.813,0,1,1,2.813-2.812A2.821,2.821,0,0,1,18,25.875Zm4.36-12.8H13.64V10.266a4.36,4.36,0,1,1,8.719,0Z" transform="translate(-6.715 -3.199)" fill="#f7f1ed" stroke="#f7f1ed" stroke-width="0.07"/>
</svg>
