<svg xmlns="http://www.w3.org/2000/svg" width="232.556" height="40.284" viewBox="0 0 232.556 40.284">
  <g id="로고__축소판" transform="translate(-42 -31)">
    <g id="Icon_ion-social-youtube-outline" data-name="Icon ion-social-youtube-outline" transform="translate(42 31)">
      <path id="패스_12" data-name="패스 12" d="M25.41,7.568c6.261,0,11.382.105,16.119.316h.134c2.215,0,4.027,2.11,4.027,4.708V12.7l.01.105c.221,3.26.326,6.645.326,10.059s-.105,6.8-.326,10.059l-.01.105v.105a5.082,5.082,0,0,1-1.285,3.462,3.711,3.711,0,0,1-2.742,1.285H41.51c-5.072.24-10.432.364-15.956.364H23.5c-5.542,0-10.9-.125-15.936-.355H7.412A3.691,3.691,0,0,1,4.679,36.6a5.128,5.128,0,0,1-1.285-3.462v-.105l-.01-.105c-.23-3.27-.336-6.655-.316-10.039v-.019c-.01-3.385.1-6.76.316-10.03l.01-.105v-.105c0-2.608,1.8-4.727,4.018-4.727h.134c4.746-.221,9.867-.316,16.128-.316H25.41m0-3.088H23.684c-5.523,0-10.95.077-16.262.316C3.51,4.816.336,8.3.336,12.612.1,16.045-.009,19.458,0,22.882c-.01,3.423.086,6.837.326,10.26,0,4.315,3.174,7.824,7.086,7.824q7.882.374,16.09.364h2.071q8.213,0,16.1-.364c3.922,0,7.1-3.509,7.1-7.824q.345-5.135.326-10.269c.01-3.423-.1-6.837-.326-10.269,0-4.315-3.174-7.776-7.1-7.776C36.361,4.577,30.943,4.5,25.41,4.5Z" transform="translate(0 -4.5)" fill="#2f365f"/>
      <path id="패스_13" data-name="패스 13" d="M14.555,29.9V11.067l13.9,9.416Z" transform="translate(5.295 -2.111)" fill="#2f365f"/>
    </g>
    <text id="ClipBuddy" transform="translate(185.556 61.284)" fill="#2f365f" font-size="34" font-family="JalnanGothicTTF, Jalnan Gothic TTF" letter-spacing="-0.02em"><tspan x="-88.961" y="0">ClipBuddy</tspan></text>
  </g>
</svg>
