<svg xmlns="http://www.w3.org/2000/svg" width="36" height="34.5" viewBox="0 0 36 34.5">
  <path id="Icon_material-hub" data-name="Icon material-hub" d="M12.6,27.3a4.428,4.428,0,0,1,.9,2.7,4.484,4.484,0,1,1-2.655-4.11l2.115-2.655A6.756,6.756,0,0,1,11.325,17.7L8.28,16.68A4.491,4.491,0,1,1,9,14.25a2.215,2.215,0,0,1-.015.315l3.045,1.02a6.7,6.7,0,0,1,4.83-3.48V8.865a4.508,4.508,0,1,1,2.265,0V12.1a6.7,6.7,0,0,1,4.83,3.48L27,14.565V14.25a4.5,4.5,0,1,1,.72,2.445l-3.045,1.02A6.735,6.735,0,0,1,23.04,23.25l2.115,2.655A4.255,4.255,0,0,1,27,25.5,4.5,4.5,0,1,1,22.5,30a4.428,4.428,0,0,1,.9-2.7l-2.115-2.655a6.748,6.748,0,0,1-6.555,0Z" fill="#8ca9d3" />
</svg>
